<?xml version="1.0" encoding="utf-8"?><!-- Uploaded to: SVG Repo, www.svgrepo.com, Generator: SVG Repo Mixer Tools -->
<svg fill="#000000" width="800px" height="800px" viewBox="0 0 24 24" id="kettle" data-name="Flat Line" xmlns="http://www.w3.org/2000/svg" class="icon flat-line"><path id="secondary" d="M7.5,8.5h6a1,1,0,0,1,1,1v11a1,1,0,0,1-1,1h-6a3,3,0,0,1-3-3v-7a3,3,0,0,1,3-3Z" transform="translate(24.5 5.5) rotate(90)" style="fill: rgb(44, 169, 188); stroke-width: 2;"></path><path id="primary" d="M16.14,18l4.62-5.42a1,1,0,0,0,.11-1.14l-.31-.56a1,1,0,0,0-1.32-.4L16,12.05" style="fill: none; stroke: rgb(0, 0, 0); stroke-linecap: round; stroke-linejoin: round; stroke-width: 2;"></path><path id="primary-2" data-name="primary" d="M9.5,4h0A3.5,3.5,0,0,1,13,7.5V10H6V7.5A3.5,3.5,0,0,1,9.5,4ZM16,19V13a3,3,0,0,0-3-3H6a3,3,0,0,0-3,3v6a1,1,0,0,0,1,1H15A1,1,0,0,0,16,19Z" style="fill: none; stroke: rgb(0, 0, 0); stroke-linecap: round; stroke-linejoin: round; stroke-width: 2;"></path></svg>