<?xml version="1.0" encoding="iso-8859-1"?>
<!-- Uploaded to: SVG Repo, www.svgrepo.com, Generator: SVG Repo Mixer Tools -->
<svg version="1.1" id="Layer_1" xmlns="http://www.w3.org/2000/svg" xmlns:xlink="http://www.w3.org/1999/xlink" 
	 viewBox="0 0 512 512" xml:space="preserve">
<rect x="221.795" y="367.165" style="fill:#54747B;" width="34.205" height="94.063"/>
<rect x="221.795" y="367.165" style="fill:#3C6168;" width="34.205" height="59.858"/>
<rect x="119.182" y="367.165" style="fill:#54747B;" width="34.205" height="94.063"/>
<rect x="119.182" y="367.165" style="fill:#3C6168;" width="34.205" height="59.858"/>
<rect x="324.409" y="367.165" style="fill:#54747B;" width="34.205" height="94.063"/>
<rect x="324.409" y="367.165" style="fill:#3C6168;" width="34.205" height="59.858"/>
<rect x="427.023" y="367.165" style="fill:#54747B;" width="34.205" height="94.063"/>
<rect x="427.023" y="367.165" style="fill:#3C6168;" width="34.205" height="59.858"/>
<rect x="118.829" y="341.512" style="fill:#FDD349;" width="342.399" height="59.858"/>
<rect x="118.829" y="384.267" style="fill:#FCB82D;" width="342.399" height="17.102"/>
<path style="fill:#FDD349;" d="M486.881,461.228H110.63c-37.721,0-68.409-30.688-68.409-68.409v-76.96
	c0-9.446-7.658-17.102-17.102-17.102s-17.102,7.656-17.102,17.102v76.96c0,56.582,46.032,102.614,102.614,102.614h376.251
	c9.445,0,17.102-7.656,17.102-17.102S496.326,461.228,486.881,461.228z"/>
<path style="fill:#FCB82D;" d="M503.5,478.33H110.63c-47.227,0-85.511-38.285-85.511-85.511v-94.063
	c-9.445,0-17.102,7.656-17.102,17.102v76.96c0,56.582,46.032,102.614,102.614,102.614h376.251c9.445,0,17.102-7.656,17.102-17.102
	c0-0.007-0.001-0.015-0.001-0.022C503.821,478.311,503.663,478.33,503.5,478.33z"/>
<path d="M267.434,107.748c3.089,3.088,8.249,3.088,11.337,0l23.306-23.305h22.867v22.867l-23.305,23.305
	c-2.919,2.919-3.113,7.74-0.426,10.878c2.997,3.501,8.503,3.72,11.763,0.461l19.985-19.985l19.985,19.985
	c3.26,3.259,8.766,3.041,11.763-0.461c2.687-3.138,2.493-7.959-0.426-10.878l-23.305-23.305V84.443h22.867l23.306,23.306
	c3.26,3.259,8.766,3.041,11.763-0.461c2.687-3.138,2.493-7.959-0.426-10.878l-19.984-19.984l19.984-19.984
	c3.131-3.132,3.131-8.207,0-11.338c-3.131-3.13-8.207-3.13-11.337,0l-23.306,23.305h-22.867V45.542l23.305-23.305
	c3.131-3.132,3.131-8.207,0-11.338c-3.131-3.13-8.207-3.13-11.337,0L332.96,30.884l-19.985-19.985c-3.131-3.13-8.207-3.13-11.337,0
	c-3.131,3.132-3.131,8.207,0,11.338l23.305,23.306v22.867h-22.867l-23.306-23.306c-3.131-3.13-8.207-3.13-11.337,0
	c-3.131,3.132-3.131,8.207,0,11.338l19.984,19.985L267.434,96.41C264.303,99.542,264.303,104.617,267.434,107.748z"/>
<path d="M412.803,287.322c3.089,3.088,8.249,3.088,11.337,0l14.755-14.754h5.765v5.765l-14.754,14.754
	c-2.919,2.919-3.113,7.74-0.426,10.878c2.997,3.501,8.503,3.72,11.763,0.461l11.434-11.434l11.434,11.434
	c3.26,3.259,8.766,3.041,11.763-0.461c2.687-3.138,2.493-7.959-0.426-10.878l-14.754-14.754v-5.765h5.765l14.755,14.755
	c3.26,3.259,8.766,3.041,11.763-0.461c2.687-3.138,2.493-7.959-0.426-10.878l-11.433-11.433l11.433-11.433
	c3.131-3.132,3.131-8.207,0-11.338c-3.131-3.13-8.207-3.13-11.337,0l-14.755,14.754h-5.765v-5.765l14.754-14.754
	c3.131-3.132,3.131-8.207,0-11.338c-3.131-3.13-8.207-3.13-11.337,0l-11.434,11.433l-11.434-11.434c-3.131-3.13-8.207-3.13-11.337,0
	c-3.131,3.132-3.131,8.207,0,11.338l14.754,14.755v5.765h-5.765l-14.755-14.755c-3.131-3.13-8.207-3.13-11.337,0
	c-3.131,3.132-3.131,8.207,0,11.338l11.433,11.433l-11.433,11.433C409.673,279.116,409.673,284.191,412.803,287.322z"/>
<path d="M19.451,141.952c3.089,3.088,8.249,3.088,11.337,0l14.755-14.754h5.765v5.765l-14.754,14.754
	c-2.919,2.919-3.113,7.74-0.426,10.878c2.997,3.501,8.503,3.72,11.763,0.461l11.434-11.434l11.434,11.434
	c3.26,3.259,8.766,3.041,11.763-0.461c2.687-3.138,2.493-7.959-0.426-10.878L67.34,132.963v-5.765h5.765l14.755,14.755
	c3.26,3.259,8.766,3.041,11.763-0.461c2.687-3.138,2.493-7.959-0.426-10.878l-11.433-11.433l11.433-11.433
	c3.131-3.132,3.131-8.207,0-11.338c-3.131-3.13-8.207-3.13-11.337,0l-14.755,14.754H67.34V105.4l14.754-14.754
	c3.131-3.132,3.131-8.207,0-11.338c-3.131-3.13-8.207-3.13-11.337,0L59.324,90.742L47.89,79.308c-3.131-3.13-8.207-3.13-11.337,0
	c-3.131,3.132-3.131,8.207,0,11.338L51.307,105.4v5.765h-5.765L30.787,96.41c-3.131-3.13-8.207-3.13-11.337,0
	c-3.131,3.132-3.131,8.207,0,11.338l11.433,11.434l-11.433,11.433C16.32,133.746,16.32,138.821,19.451,141.952z"/>
<path d="M358.614,367.699h-85.512c-4.427,0-8.017,3.588-8.017,8.017c0,4.428,3.589,8.017,8.017,8.017h85.512
	c4.427,0,8.017-3.588,8.017-8.017C366.63,371.288,363.041,367.699,358.614,367.699z"/>
<path d="M221.795,367.699c-4.427,0-8.017,3.588-8.017,8.017c0,4.428,3.589,8.017,8.017,8.017h17.102
	c4.427,0,8.017-3.588,8.017-8.017c0-4.428-3.589-8.017-8.017-8.017H221.795z"/>
<path d="M486.881,453.211h-17.637V341.512c0-4.428-3.589-8.017-8.017-8.017h-68.409c-4.427,0-8.017,3.588-8.017,8.017
	c0,4.428,3.589,8.017,8.017,8.017h60.392v9.62H401.37c-4.427,0-8.017,3.588-8.017,8.017c0,4.428,3.589,8.017,8.017,8.017h51.841
	v18.171H126.842v-9.62h52.197c4.427,0,8.017-3.588,8.017-8.017c0-4.428-3.589-8.017-8.017-8.017h-52.197v-18.171h231.771
	c4.427,0,8.017-3.588,8.017-8.017c0-4.428-3.589-8.017-8.017-8.017H118.826c-4.427,0-8.017,3.588-8.017,8.017l0.356,111.699h-0.534
	c-33.3,0-60.392-27.092-60.392-60.392v-76.96c0-1.413-0.123-2.797-0.348-4.147c29.752-20.974,187.48-132.328,198.952-143.8
	c14.913-14.914,14.913-39.179,0-54.093c-14.913-14.912-39.179-14.913-54.093,0.001c-3.462,3.462-33.994,34.672-69.347,70.809
	c-37.33,38.158-79.611,81.378-104.189,106.418C9.211,292.927,0,303.336,0,315.858v76.96c0,61.002,49.629,110.63,110.63,110.63h76.96
	c4.427,0,8.017-3.588,8.017-8.017s-3.589-8.017-8.017-8.017h-76.96c-52.161,0-94.597-42.436-94.597-94.597v-76.96
	c0-5.01,4.076-9.086,9.086-9.086s9.086,4.076,9.086,9.086v76.96c0,42.141,34.285,76.426,76.426,76.426h376.251
	c5.01,0,9.086,4.076,9.086,9.086s-4.076,9.086-9.086,9.086H221.795c-4.427,0-8.017,3.588-8.017,8.017s3.589,8.017,8.017,8.017
	h265.086c13.851,0,25.119-11.268,25.119-25.119S500.732,453.211,486.881,453.211z M136.863,195.839
	c35.319-36.104,65.824-67.285,69.224-70.685c8.662-8.663,22.757-8.663,31.419,0c8.662,8.662,8.662,22.756,0,31.418
	c-8.137,8.137-119.477,87.483-195.274,140.921c-0.854-0.796-1.763-1.533-2.721-2.204
	C64.616,269.689,102.802,230.655,136.863,195.839z M419.006,409.386v43.825H366.63v-43.825H419.006z M316.392,409.386v43.825
	h-52.376v-43.825H316.392z M213.779,409.386v43.825h-52.376v-43.825H213.779z M127.198,453.211v-43.825h18.171v43.825H127.198z
	 M229.812,453.211v-43.825h18.171v43.825H229.812z M332.426,453.211v-43.825h18.171v43.825H332.426z M435.04,453.211v-43.825h18.171
	v43.825H435.04z"/>
</svg>