<?xml version="1.0" encoding="iso-8859-1"?>
<!-- Uploaded to: SVG Repo, www.svgrepo.com, Generator: SVG Repo Mixer Tools -->
<svg version="1.1" id="Layer_1" xmlns="http://www.w3.org/2000/svg" xmlns:xlink="http://www.w3.org/1999/xlink" 
	 viewBox="0 0 512 512" xml:space="preserve">
<rect style="fill:#29ABE2;" width="512" height="382.636"/>
<rect y="336" style="fill:#3D8AAB;" width="512" height="46.636"/>
<rect y="352" style="fill:#0C6D95;" width="512" height="30.636"/>
<rect y="384.608" style="fill:#009245;" width="512" height="127.391"/>
<polygon style="fill:#8CC63F;" points="239.04,512 0,512 0,384.611 368,384.611 "/>
<circle style="fill:#FBB03B;" cx="471.995" cy="224" r="32"/>
<path style="fill:#F15A24;" d="M472,192c-4.25,0-8.29,0.868-12.001,2.373C471.717,199.125,480,210.578,480,224
	s-8.282,24.875-20.001,29.627C463.71,255.131,467.749,256,472,256c17.673,0,32-14.328,32-32C504,206.327,489.673,192,472,192z"/>
<path style="fill:#FBB03B;" d="M356.108,104.03C353.448,96.515,352,88.427,352,80c0-39.765,32.235-72,72-72s72,32.235,72,72
	s-32.235,72-72,72c-5.508,0-10.873-0.619-16.026-1.79"/>
<g>
	<circle style="fill:#F15A24;" cx="375.995" cy="135.995" r="39.995"/>
	<path style="fill:#F15A24;" d="M424,8c-8.429,0-16.484,1.523-24,4.184c27.946,9.895,48,36.48,48,67.816
		c0,29.929-18.267,55.58-44.255,66.445l4.228,3.764C413.127,151.381,418.491,152,424,152c39.765,0,72-32.236,72-72
		C496,40.235,463.765,8,424,8z"/>
</g>
<polyline style="fill:#FBB03B;" points="320,336.787 352,336.787 304,88.787 256,336.787 287.475,336.787 "/>
<path style="fill:#F15A24;" d="M304,88.393c0,0-8.89,46.122-16,82.863l32,165.53h32L304,88.393z"/>
<path style="fill:#FBB03B;" d="M144,272v17.125C144,301.758,154.241,312,166.875,312h50.251c12.633,0,22.875-10.241,22.875-22.875
	V38.875C240.001,26.242,229.76,16,217.126,16h-50.251C154.242,16,144,26.241,144,38.875V96"/>
<path style="fill:#F15A24;" d="M208,39.432c0-12.634-10.242-22.646-22.875-22.646h32c12.633,0,22.088,9.454,22.088,22.088v250.25
	c0,12.633-9.455,23.531-22.088,23.531h-32c12.633,0,22.875-10.569,22.875-23.203"/>
<g>
	<path style="fill:#FBB03B;" d="M34.695,223.987C27.894,212.223,24,198.567,24,184c0-44.183,35.817-80,80-80s80,35.817,80,80
		s-35.817,80-80,80c-8.37,0-16.441-1.285-24.024-3.67"/>
	<circle style="fill:#FBB03B;" cx="48" cy="256" r="32"/>
</g>
<g>
	<path style="fill:#F15A24;" d="M48,224c-4.25,0-8.29,0.868-12.001,2.373C47.717,231.125,56,242.578,56,256
		s-8.282,24.875-20.001,29.627C39.71,287.131,43.749,288,48,288c17.673,0,32-14.328,32-32C80,238.327,65.673,224,48,224z"/>
	<path style="fill:#F15A24;" d="M104,104c-6.919,0-13.596,0.972-20.001,2.623C118.485,115.517,144,146.736,144,184
		c0,37.298-25.564,68.544-60.099,77.403C90.329,263.067,97.051,264,104,264c44.183,0,80-35.817,80-80S148.183,104,104,104z"/>
</g>
<path d="M191.869,184c0-48.451-39.418-87.869-87.869-87.869S16.131,135.549,16.131,184c0,13.645,3.179,27.092,9.223,39.213
	C14.958,230.416,8.131,242.423,8.131,256c0,19.198,13.64,35.267,31.738,39.033v22.134l55.607,24.091V384h15.738V271.549
	C156.3,267.864,191.869,230.02,191.869,184z M23.869,256c0-13.306,10.824-24.131,24.131-24.131S72.131,242.694,72.131,256
	S61.307,280.131,48,280.131S23.869,269.306,23.869,256z M55.607,306.834v-11.702c13.738-2.666,24.98-12.401,29.768-25.259
	c3.329,0.719,6.7,1.242,10.1,1.571v52.663L55.607,306.834z M111.213,255.769v-27.121l21.151-14.101l-8.729-13.094l-12.422,8.281V192
	H95.475v63.629c-2.576-0.303-5.128-0.743-7.65-1.32c-0.89-21.202-18.409-38.178-39.826-38.178c-2.796,0-5.525,0.293-8.159,0.842
	c-5.219-10.147-7.972-21.471-7.972-32.974c0-39.773,32.358-72.131,72.131-72.131s72.131,32.358,72.131,72.131
	C176.131,221.338,147.612,252.139,111.213,255.769z"/>
<rect x="407.082" y="175.213" width="15.738" height="64"/>
<rect x="31.475" y="440.656" style="fill:#F15A24;" width="15.738" height="47.213"/>
<rect x="54.557" y="416.525" style="fill:#FBB03B;" width="15.738" height="71.344"/>
<rect x="79.738" y="455.344" style="fill:#F15A24;" width="15.738" height="32.525"/>
<rect x="103.869" y="448" style="fill:#FBB03B;" width="15.738" height="39.869"/>
<rect x="128" y="416.525" style="fill:#F15A24;" width="15.738" height="71.344"/>
<rect x="79.738" y="408.131" style="fill:#FBB03B;" width="15.738" height="39.869"/>
<rect x="16.787" y="480.525" width="142.689" height="15.738"/>
<rect x="184.656" y="416.525" width="175.213" height="15.738"/>
<rect x="376.656" y="416.525" width="24.131" height="15.738"/>
<rect x="263.344" y="456.393" width="192" height="15.738"/>
<path d="M422.82,377.705v-52.764l56.656-32.375v-29.411c18.422-3.511,32.393-19.728,32.393-39.155
	c0-21.983-17.885-39.869-39.869-39.869c-21.983,0-39.869,17.885-39.869,39.869c0,19.151,13.575,35.186,31.607,39.002v20.431
	l-40.918,23.382v-46.59l-39.869-32v-44.867c14.858-2.172,27.514-11.194,34.664-23.746c2.121,0.168,4.252,0.257,6.385,0.257
	c44.04,0,79.869-35.828,79.869-79.869S468.04,0.131,424,0.131S344.131,35.96,344.131,80c0,6.275,0.741,12.465,2.173,18.498
	c-11.059,8.776-18.173,22.32-18.173,37.502c0,23.393,16.871,42.907,39.082,47.046v52.728l39.869,32v109.931h-95.475v-61.319
	l20.758-13.839l-8.729-13.094l-12.029,8.019v-17.341h-15.738v97.574h-92.241l16.737-11.158l-8.729-13.094l-13.34,8.893v-42.477
	h18.83c16.952,0,30.744-13.791,30.744-30.744V38.875c0-16.953-13.791-30.744-30.744-30.744h-50.25
	c-16.952,0-30.744,13.791-30.744,30.744V96h15.738V38.875c0-8.275,6.732-15.006,15.006-15.006h50.25
	c8.275,0,15.006,6.732,15.006,15.006v250.25c0,8.275-6.732,15.006-15.006,15.006h-18.83v-37.781l14.711-22.428l-13.16-8.632
	l-17.288,26.359v10.599l-10.193-6.796l-8.729,13.094l18.922,12.615v12.969h-15.682c-8.275,0-15.006-6.732-15.006-15.006V272h-15.738
	v17.125c0,16.953,13.791,30.744,30.744,30.744h15.682v40.379l-10.193-6.796l-8.729,13.094l16.737,11.159H0v15.738h512v-15.738
	H422.82z M447.869,224c0-13.306,10.824-24.131,24.131-24.131s24.131,10.825,24.131,24.131S485.307,248.131,472,248.131
	S447.869,237.306,447.869,224z M359.869,80c0-35.363,28.77-64.131,64.131-64.131S488.131,44.637,488.131,80
	s-28.77,64.131-64.131,64.131c-0.278,0-0.554-0.02-0.832-0.023c0.452-2.638,0.701-5.343,0.701-8.108
	c0-26.395-21.474-47.869-47.869-47.869c-5.332,0-10.456,0.89-15.25,2.505C360.167,87.141,359.869,83.588,359.869,80z M343.869,136
	c0-17.718,14.414-32.131,32.131-32.131s32.131,14.414,32.131,32.131S393.717,168.131,376,168.131S343.869,153.717,343.869,136z"/>
<polygon points="342.462,328.393 320,328.393 320,344.131 361.538,344.131 304,46.852 246.462,344.131 287.475,344.131 
	287.475,328.393 265.538,328.393 304,129.672 "/>
</svg>